<svg id="visual" viewBox="0 0 900 600" width="900" height="600" xmlns="http://www.w3.org/2000/svg" xmlns:xlink="http://www.w3.org/1999/xlink" version="1.1"><path d="M0 206L16.7 227.5C33.3 249 66.7 292 100 302C133.3 312 166.7 289 200 265.3C233.3 241.7 266.7 217.3 300 232.3C333.3 247.3 366.7 301.7 400 334.2C433.3 366.7 466.7 377.3 500 383.3C533.3 389.3 566.7 390.7 600 360.8C633.3 331 666.7 270 700 271.5C733.3 273 766.7 337 800 335C833.3 333 866.7 265 883.3 231L900 197L900 601L883.3 601C866.7 601 833.3 601 800 601C766.7 601 733.3 601 700 601C666.7 601 633.3 601 600 601C566.7 601 533.3 601 500 601C466.7 601 433.3 601 400 601C366.7 601 333.3 601 300 601C266.7 601 233.3 601 200 601C166.7 601 133.3 601 100 601C66.7 601 33.3 601 16.7 601L0 601Z" fill="#FFF" stroke-linecap="round" stroke-linejoin="miter"></path></svg>